<svg xmlns="http://www.w3.org/2000/svg" width="212" height="77.645" viewBox="0 0 212 77.645">
  <path id="Path_4253" data-name="Path 4253" d="M205.465,2.684c.078-.3.491-.224.568,0,.161.472-.659.36-.568,0m.568,9.917c.026,0,.254-.287.426-.168.651.449-.23,1.009.852,1.009.282,0,.466-.049.568.168.239.511.438.812-.284.84a13.828,13.828,0,0,1-1.7-.336c-.061-.016-1.37-.482-1.136-1.009.125-.283,1.346.488,1.561,0,.009-.022-.3-.5-.285-.5m1.561.335c0-.336,1.676-.19,1.7.168.017.241-.889.166-1.419,0,.068.022-.283-.278-.284-.168m-3.264,2.185c.1-.469,1.264-.007,1.561,0,.119,0,.756-.444.851,0,.155.727-.408.518-.994.5a6.689,6.689,0,0,1-1.419-.5M208.3,16.8c-.005-.263,1.077-.266.71.169-.168.2-.708-.14-.71-.169m2.129,0c.208-.22,1.407-.327,1.561.169.145.468-1.877.165-1.561-.169m-5.534.336c.023-.281,1.619-.069,1.276.336-.129.154-1.314.131-1.276-.336m2.7,1.177a.394.394,0,0,1,.426-.168c-.066-.017.275.28.283.168-.02.281-.957.294-.709,0m.709.5c.459-.544.609-.192.71,0,.151.289-1.093.453-.71,0m-2.838,7.227c-.051-.3.563-.149.568,0,0,.073-.492.444-.568,0m3.264,5.882c0-.068,1.031-.46,1.277-.168.435.515-1.275.4-1.277.168m-1.7,19.327c1.16-.587-.066.763-.426.336-.137-.162.361-.3.426-.336m-4.682,3.7a.329.329,0,0,1,.283-.168,1.386,1.386,0,0,1,.426,0c.249.3-1.043.564-.709.168m-16.887,3.194c-.045-.271.186.017.141,0,.15.055.454-.315.567-.168.36.462-.606.79-.708.168M189,63.692c.041-.539,1.2.072.425.168.033,0-.42-.249-.425-.168m16.6.672c-.285,0,.616-.429.71,0,.074.342-2.387.872-2.555.672-.313-.372,1.626-.675,1.844-.672m-29.091,5.546c.389-.174.606.17.426.336-.146.135-1.214.018-.426-.336M41.138,71.76c.054-.1,2.754-.407,2.412.336.025-.054-2.744.3-2.412-.336m160.07.84c.014,0,.413-.351.568-.167.245.29-1.432,1.378-1.561,1.177-.38-.6.673-.912.994-1.01m-57.33.505c.015-.007-.014-.163,0-.169.475-.185,1.1.561.142.673-.265.03-.487.033-.568-.169-.152-.378.277-.272.426-.335m29.658,0c-.038-.317.849-.153.852,0,0,.182-.81.34-.852,0M58.308,74.112c.045-.166.865-.248,1.7-.168,2.652.251.022.853-1.419.5-.028-.007-.306-.256-.284-.336m64.851,0a.733.733,0,0,1,.71-.168c.33.107.318.474-.284.5a1.52,1.52,0,0,1-.709-.168c-.055-.153.223-.132.283-.168m-61.019.168c-.282-.358,1.7,0,1.7,0-.12.323-1.495.263-1.7,0m2.412,0c-.079.02.824-.435.852,0,.014.227-2.159.325-.852,0m22,.336c0,.016,1.677-.535,1.986-.168.475.562-1.986.394-1.986.168m108.132,0c-.056,0,.854-.433.71.168-.084.349-.536.093.141.336,1.1.394-1.293.767-1.844.5.255.122-.411-.825-.427-.5.026-.533.611-.5,1.419-.5m-83.441.5c.276-.326.979-.154,1.419,0,1.515.53-1.77.415-1.419,0m50.8.167c-.044-.311.707-.152.71,0s-.655.385-.71,0m30.367,0c.075-.025.695-.412.852,0,.176.461-1.2.465-1.277.168-.05-.2.319-.13.426-.169m-64.85.5c0,.257.257-.7.71-.167.35.414-.71.452-.71.167m44.416.5a.85.85,0,0,1,.852,0c-.005,0,.392.276.426.168-.082.258-2.239.318-1.277-.168m-26.111.168c-.149-.516,2.156.355.569.168.067.008-.588-.237-.569-.168m13.056,0c.01,0,1.219-.394,1.561,0,.035.04-.367.32-.426.336.056-.015-.065-.186-.141-.168-.229.055-1,.08-1.419.168a2.415,2.415,0,0,1-.426,0c-.208-.567.575-.294.852-.336M70.938,73.944c-.452-.536-.71.424-.71.168,0,.283,1.059.246.71-.168m105.294.336c.005.116,2.017.251,1.986,0-.02-.176-.821-.5-.851-.5-.134-.01-.257.167-.284.168-.559.031-.873-.169-.852.336m-9.649-.336c.042.051,2.017-.089,1.986-.335-.075-.592-.208-.089-.851,0-.241.032-1.293.15-1.136.335M45.962,72.431c.083.018.316.273.426.169.374-.353-1.388-.555-1.277-.168.02.071.751-.022.851,0m150.42-.84c.007-.175-.328.012-.283,0-1.394.361.268.427.283,0m-117.214,0c-.027.19-1.277.132-.852.5a6.38,6.38,0,0,0,1.561,0c.548-.114.237-.445.284-.672,0,.021.254-.074.142-.168-.214-.18-.827.019-1.277.168.09-.03.159.054.142.168m3.406-.168c-1.119.988,1.571.415,1.986.672.5.308-.313.462.284.672a12.965,12.965,0,0,0,3.974,0c-.035.027.167-.734.142-.672.376-.952.322-.794-.71-.841a26.1,26.1,0,0,0-3.406,0c-.646.032-1.937-.126-2.27.168m84.718-.336c-.164-.416-.579.061-.568,0-.081.452.731.415.568,0m-7.805-1.177c.086,0-1.526-.282-1.136.168.288.332,1.182-.138,1.561,0,.23.084.112.3.426.336a7.793,7.793,0,0,0,1.277,0c.525-.021,1.544.2,1.136-.672-.259-.552-2.405.044-2.838,0,.017,0-.057-.294-.142-.168-.007.011.007.168,0,.168a.741.741,0,0,0-.284.168m-12.346-.168a.773.773,0,0,0-1.277,0c-.355.421,1.524.405,1.277,0m-10.217-.168c.524.046,1.949.113,1.844.672,0,.029-.517-.011-.567,0a3.306,3.306,0,0,0-.426.168c-1.064.383-.692.317,0,.672.253.13.333.268.568.336s.529-.048.851,0c.636.095,1.216.379,1.419.336.22-.047-.01-.212.142-.336a1.209,1.209,0,0,1,.568-.168c.336.065.074.545.426.5.446-.052.051-.168.142-.336.228-.422.451-.2.71-.168a14.623,14.623,0,0,0,4.4,0c.909-.135,0-.043-.567-.168a7.877,7.877,0,0,0-1.419-.335c-.657-.083-1.848.224-1.986-.337-.082-.328.222-.208.567-.336.852-.316.547-.241.852-.168.127.03.131-.167.142-.168,1.037-.085.3-.055-.426-.168-.616-.1-1.622-.32-1.986,0-.27.237.211.728-.426.841-.364.065-.812-.67-1.136-.672-.476,0-.5.387-.709.336-.038-.009.038-.477,0-.5-.119-.086-.427.03-.568,0-.317-.066-3.932-.374-3.832,0a12.046,12.046,0,0,0,1.419,0m-50.8-.336c.353.073,2.272.421,2.27,0,0-.229-2.706-.288-2.7,0,0,.007.4-.005.426,0m-43-.168c-1.7.1.392.069,1.419.168.13.013,1.719.133,1.561-.167.094.178-.686-.165-.709-.168a1.975,1.975,0,0,0-1.136.168c-.581.019-.929-.013-1.136,0m-3.547,0c2.085-.084-1.071-.258-.852,0,.077.091.572.011.852,0m73.791,0c1.724.385-1.211.2-1.845.337a5.224,5.224,0,0,0-.426.335c.019.126,1.206.123,1.419.168a15.7,15.7,0,0,1,2.27.336,5.058,5.058,0,0,1,.143.505,2.335,2.335,0,0,0,1.277,0c.253-.026-.812-.189-.426-.505.106-.087,1.015.2.993.168.07.111-.131.509-.142.5.4.18.77-.152.852-.167a1.092,1.092,0,0,1-.426-.337c.005-.006.611-.173.569-.168.338-.046,1.33.04,1.419,0,.128-.058.272.169.284.168,1.078-.108.225-.472,0-.5-1.1-.157-2.058-.031-1.845-.672.06-.18,1.376-.145,1.136-.5-.224-.334-2.622-.042-2.7,0-.125.07.1.507-.142.5-.018,0,.023-.493,0-.5a10.567,10.567,0,0,0-2.554,0c-.9-.005-2.2-.508-2.271,0a13.218,13.218,0,0,0,2.413.335M84.987,67.894c0-.2-1.162-.289-1.135,0,.033.351,1.137.2,1.135,0m-6.244.5c-.011-.032.279.162.284.169.04.055.1.479.142.5.527.325,4.484-.108,4.541-.168-.3.318-.707-.63-.71-.5,0,.038.461-.361.284-.5a2.3,2.3,0,0,0-1.845,0c.146-.05.5.224.426.336-.546.78-.353-.154-.851,0-.191.058-.23.4-.426.5a.713.713,0,0,1-1.136-.5,1.267,1.267,0,0,1,.142-.5c-.274-.261-.832.127-.852.168.124-.263.049.656,0,.5m-.993-.5c.322.054,1.235.638.709,0-.256-.311-1.445-.236-1.419,0,0,.023.649-.01.71,0m97.347.168c.507-.6-.662-.679-.709-.336-.014.1.621.44.709.336M35.461,67.222c-.772.1-.081.1.142.168a1.548,1.548,0,0,0,.71.168c1.428.132,3.022.207,4.115.336.927.109,1.761-.043,2.129,0a3.123,3.123,0,0,0,.709.336c.464.1,1.894.171,1.845-.336.01.1-.359-.192-.284-.168-.882-.275-2.083.016-2.7-.168-.406-.122-.01-.533-.284-.672a2.993,2.993,0,0,0-1.277,0c-.211.022.007.135,0,.169-.084.441-1.288.487-1.844.335-.3-.082-.507-.444-.852-.5a5.321,5.321,0,0,0-1.135.169c-.505.06-.794.1-1.277.167m79.325-.336c.291-.344-1.443-.657-1.418-.335s1.514.223,1.418.335m58.892-.672c.206.244.73-.168.852-.168.544,0,1.358.2,1.277-.168-.055-.249-1.125,0-1.136,0-.384-.021-.552-.3-.851,0-.017.017-.267.189-.142.336m7.663-.5c0,.005.973.226,1.136-.167.033-.081-.353-.284-.426-.336-.174-.124.04-.027-.141,0s-.666.388-.569.5m-70.1-.5a13.418,13.418,0,0,0,1.845.336c.143.021.169-.175.284-.168.822.047,1.579.138,2.128.168.164.009,2.293.445,1.986-.168a30.229,30.229,0,0,1-3.122-.5c-.685-.021-.352.163-1.135.168.02,0-.059-.292-.142-.168-.007.01.006.168,0,.168-.513.024-1.835-.141-1.845.168M164.171,64.2c-.485-.029-1.043-.063-1.136.168-.057.141,3.367-.039,1.136-.168m9.081-.5a5.247,5.247,0,0,0-.851.168c-.191.373.311.258.425.336.2.138.14.262.426.336a6.693,6.693,0,0,0,1.987,0c.5-.066,1.321-.691,1.561-.336.075.111.172-.172.142-.168.14-.017.618.038.568-.168-.122-.5-1.133-.168-1.136-.168a12.021,12.021,0,0,0-3.122,0m7.1,0c.229.271,2.177-.154,2.412-.168.283-.017.965.039,1.419,0-.209.018,1.422-.008.142-.168a7.754,7.754,0,0,0-3.123.168c.024,0-1.083-.106-.851.168m5.534-.168c.119-.128.894.241.852.336.008-.018-.569.069-.426.168.975.68.4.179,1.7.336.812.1,1.622-.148,1.561.5,0,.028-.522-.024-.568,0-.026.013-.116.3-.143.336-.127.174-.648.139-.567.336a2.329,2.329,0,0,0,.426,0c.254.03,1.524.129,1.419.335a3.647,3.647,0,0,0-.567.168c-.93.148-.886-.358-1.136.336.156-.434,1.031.526.994.841,0-.037-.365.292-.284.336a6.323,6.323,0,0,0,2.412,0c.334-.045.616-.332.569-.336s.227.325.282.168c.044-.12-.611-1.031-.567-1.009-.69-.359-1.261.348-1.561-.168.279.479,1.015-.755.994-.84-.04-.156-1.924-.06-.852,0-.116-.007-.963-.037-.851-.336.028-.076.476.085.851,0,.284-.063.4-.434.426-.5.02-.054.249-.108.284-.168.252-.435-.045-.615,0-.841,0-.011.367-.235.284-.336-.288-.35-1.12-.01-1.844,0a4.472,4.472,0,0,1-1.277-.168c.005,0,0,.168,0,.168-.83.046-2.039-.067-2.412.336m-22.847-.336a6.93,6.93,0,0,0,2.128.168c.239-.283-.335-.3-.426-.336a2.225,2.225,0,0,0-1.7,0c-.191.117-.387.058,0,.168m10.5-.168c.937.215,2.216-.064,1.986-.336-.3-.354-2.412.17-2.412.169,0-.139.518.189.426.167m8.8-.5c-.312.057-1.136,0-.71.168.821.318,3.185-.037,3.264-.335-.057.217-.485-.359-.426-.336-.254-.1-.9.174-.709.168a5.854,5.854,0,0,0-1.419.335M189,62.348c.191.154,3.142.009,1.844-.336a2.412,2.412,0,0,0-1.136,0c-.233.038-.955.139-.708.336m5.533-.337c.809-.528-.716-.309-.851-.167-.309.32.495.4.851.167m-7.521-.5c.079.32.948.193.851-.168s-.7.073-.567,0c-.073.041-.325.006-.284.168m-68.541.335c.016.034,1.645.08,1.419.169.281-.111.405-.743.426-.672-.091-.313-.162.019-.568,0-.538-.025-1.467.1-1.277.5m74.5-.84c.23.272,1.6-.194,1.561-.168.461-.294.2-.155.142-.168a2.693,2.693,0,0,0-1.7.336m-9.507-1.009c-.008-.154.671.193.568.168.1.023.171-.164.142-.168.481.065.88.377.993.168.561-1.04-1.066-.5-.851-.5-.367,0-.886-.266-.852.336m-40.443-1.344c.056-.067-.315-1.609-.426-.841-.042.284.234,1.067.426.841m45.126.84c-.336.169-.7.139-.852-.168-.032-.063.039-.573.283-.672.272-.109.5.337.71.168.1-.081-.146-.486-.141-.505.223-1.145,5.494-.181,5.675-1.008a1.262,1.262,0,0,0-.426-.168c-1.013.04-3.573.611-4.4.336-.156-.052-.387-.5-.426-.5-.165-.014-.47.281-.71.336-.206.047-.3-.168-.426-.168a1.286,1.286,0,0,1-.567.168,7.93,7.93,0,0,0-2.413,0c-.292.06-.892.438-1.135.5-.908.247-.352.04.142.168.556.144.659.494.284.672-.689.325.134.06.709.168.189.035.288.29.426.335.521.175.764-.047.994.168a1.653,1.653,0,0,1,.142.336,4.394,4.394,0,0,0,1.419.168c.9.117.6.169.994-.336.091-.115.471-.072.284-.5-.153-.353-.736.389-.426.5a.375.375,0,0,0-.141,0M142.034,56.3c.416.428.55-.033.425-.336-.109-.262-.142-.071-.284,0-.177.089-.388.084-.141.336m-1.988-1.513a9.931,9.931,0,0,0,1.136.336,7.45,7.45,0,0,0,1.419,0c.643-.029,1.276.169,1.135-.336-.048-.173-.108-.138-.284-.167-.833-.141-3.608-.107-3.832.167-.077.1.475.011.426,0M202.2,48.4c-.02-.055.608.185.568.167.447.19.652.189.567-.167-.18-.759-.305-.632-.71-.5.082-.026-.653-.138-.425.5m-30.653-.337c-.018-.1.71.148.569.168.794-.116.162-1.031-.426-.335-.06.071-.177-.026-.143.167m9.509,0c.072-.273-.51-.808-.71-.335-.186.442.653.549.71.335m-1.136,0c.248-.293-.057-.773-.426-.335-.325.385.239.557.426.335m-6.1,0a4.482,4.482,0,0,0,.143-.672c-.125-.148-.4.133-.427.168-.085.131.066.647.284.5m7.947-1.008c-.167-.167-.529.122-.568.168-.405.48.742.005.568-.168m-55.627,0a2.727,2.727,0,0,1-.567,0c-.081-.04.026-.149-.143-.168v.168c-1.647.082.55.415.71,0m52.647-.841c.14.676,1.323.175,1.561.168.269-.009.313.175.568.168.3-.009.664-.292.994-.336.636-.083,1.037.166,1.135-.168-.045.152-.492-.174-.427-.168-.233-.024-.68.179-.851.168a7.017,7.017,0,0,0-2.412,0c-.134.06-.617-.073-.568.168m6.812,0c.146-.173-.26-.533-.426-.336-.248.3.315.468.426.336m19.016-.5c.279-.323-.568-.566-.568-.167,0,.114.426.332.568.167M186.45,43.188c.8.241,2.749-.229.993-.336-.106-.006-.633-.09-.851.168.025-.03-.27.13-.142.168m-4.116-1.009c.013.006,1.282.123,1.277-.168-.006-.377-.707,0-.568,0-.487.014-1.056,0-.71.168m4.258-.168c.327.37,1.862.065,1.419-.336-.307-.279-1.105.149-1.135.169s-.381.059-.284.167m-5.818-.672c.109.646,1.134-.481.284-.169-.086.032-.31.013-.284.169m1.136,0c.063.287,2.935.5,2.7-.5-.014-.055-.508.165-.568.168-.162.007-.219-.144-.426-.168-.139-.017-.109.16-.142.168-.128.03-.13-.167-.142-.168a1.09,1.09,0,0,0-.568.168c-.1.032-.984-.262-.851.336m4.825-3.867c-.276-.265-.853.17-.852.169-.5.414,1.292.255.852-.169m-4.258.5c0-.007.517.165.568.168.426.025,1.85-.179,1.7-.672-.051-.172-.646.166-.567.168a4.4,4.4,0,0,0-1.7.335m5.818-7.059c-.051.025.162-.365.142-.335a3.277,3.277,0,0,1,.284-.336c-.205-.243-1.017-.038-1.136,0-.014,0,.014.156,0,.168-.5.458.141.777.71.5m-2.98-5.21c-.042.2-.572-.507-.568-.5s0,.168,0,.168c-1.012.3.364,1.306.568.336m2.412-.5c.014.526-.555.241-.709.168-.657-.308-.164.124-.284.336s-1.025-.055-.71.5c.234.415,1.494.183,1.7.168.3-.021.442.156.71.168a1.127,1.127,0,0,1,.425-.168c.628-.028.83.024,1.136-.5-.091.157-.708-.309-.71-.336.006.116.612-.345.426-.5a3.258,3.258,0,0,0-2.128-.169c-.088.023.144.417.142.336m-3.547-2.857c-.262.591,1.477.292.993-.168-.334-.318-.584.087-.71.168-.038.025-.266-.04-.283,0M202.2,18.314c-.013-.194-2.059-.554-1.987-.168s1.989.2,1.987.168m-17.171-3.7c0-.008.516.165.567.169.278.016,1.753-.341,1.561-.5-.246-.212-1.262.016-.851,0,.363-.015-.172.017-.71.167-.165.046-.584-.071-.567.168m-61.162-.841c-.33.238-2.514-.037-1.987.505.356.364.535-.027.852,0,.39.031,1.816.153,1.987.167.272.023.736.256.852.168.265-.2,0-1.346,0-1.345a1.149,1.149,0,0,0-1.136-.168c-.168.041-.267.457-.568.672m.994-1.008c.279-.324-.568-.566-.568-.168,0,.114.426.333.568.168m62.155,0c.481-.57-.669-.658-.71-.336,0,0,.6.466.71.336m-37.463-2.185c-.121.053.022.438-.143.5-.883.35.39.55,0,1.009-.192.226-1.206.047-1.135.336.136.551,1.393.344,1.986.5.026.007.063.473.143.505a5.3,5.3,0,0,0,1.986,0c.992-.216-.2-.27,0-.841.062-.176.852-.071.71-.336-.258-.483-1.549-.081-1.42-.5.109-.356-.145-.1.71-.168-.387.032.916.131.994,0,.212-.36-.446-.531-.568-.5-.609.135-1.287.3-1.419-.168-.078-.275.481-.483.425-.5-.373-.144-.655.114-1.136.169-.353.039-.9-.106-1.134,0m44.558-1.345a2.189,2.189,0,0,1-1.136.335c-.479.01-.834-.562-1.135-.167s1.4.521,1.277.84c-.035.095-.979,0-.992,0,.26-.04-1.567.456-1.562.5,0,.007.516.154.568.168.522.144,3.795.851,3.264-.5-.076-.195-.3.091-.284-.335.011-.262.359-.158.426-.337.079-.212-.124-.459-.142-.672-.05-.6-.328-.154-.426-.168.032,0,.26.207.142.336m9.224-1.681c0-.173-.729.022-.71,0-.241.285.7.3.71,0M186.45,6.382c-.106.28-.963.05-.568.335.282.2,1.151.086,1.277-.168-.026.055-.267-.318-.283-.336-.3-.32-.347-.181-.426-.167-.014,0,.011.308,0,.336m-5.109-.169c-.519.246-.32-.021-.567-.167-.637-.377-.741.816-.71.84a7.465,7.465,0,0,0,1.845,0c.16-.113.162-.985.141-1.008-.109-.128-.463.155-.426.168-.1-.035-.214.135-.284.167m21-.167c2.018.41-.967-.572-.852-.168.055.194.713.139.852.168m-10.643,0c-.158,0-.318-.321-.569-.168-.111.068-.071.368-.142.5a3.45,3.45,0,0,1-.284.335c-.031-.039,1.163.133,1.7.168a4.3,4.3,0,0,0,1.987-.168c.329-.24,1.091-.294.994-.672-.079-.3-.7-.334-.71-.336a3.93,3.93,0,0,0-.993.168c-.732.021-1.653.177-1.986.168m7.946-1.009c.061-.737.923.933,1.277.5a4.223,4.223,0,0,0,0-.841c-.117-.126-.458.156-.426.168-.248-.086-.836-.017-.851.168m-8.8,0c.091-.151.152.343.142.336.1.074.449,0,.568,0,.494.015,1.222-.2,1.7-.168.223.013,1.3.679,1.7.336,0,0,.087-.787.142-.672-.134-.279-.968-.02-.852,0-.445-.077-3.2-.179-3.406.168m-5.534-.168c.666,0,.673.24.994.336.267.08.794.055.71-.168.056.149-.854-.427-.568-.336-.305-.1-1.73-.038-1.7.168,0,.013.522,0,.568,0m-12.2-1.344c.218.116,1.886.03,1.845-.169-.1-.455-1.3.015-1.136,0-.268.024-.994.015-.71.169m-10.5,0c.793.093,3.872.047,2.128-.169-.852-.1.4-.089-.71-.168a2.77,2.77,0,0,0-1.419.168c-.165.092-.411.12,0,.169m34.2,0a15.672,15.672,0,0,0,3.548,0c0,.011-3.828-1-3.974-.337-.02.092.4.331.426.337m-4.825-.505c.389.074.9.486,1.136.505.31.025.535-.258.71-.169.2.1-.168.539.284.5.286-.022.27-.182.426-.335a1.365,1.365,0,0,1,.426-.337c.362-.149.944.207.567-.168-.069-.068-.637.088-1.135,0-.46-.08-3.566-.408-3.548,0,0,.023,1.043-.018,1.135,0m-40.017.168a15.466,15.466,0,0,0,3.974-.168c0-.25-4.4-.28-4.4,0,0-.135.522.184.425.168m-12.913-.5c-.538,0-1.743-.473-1.561,0,.165.43,3,0,1.561,0m-8.23,0c.534.167,4.1-.02,2.27-.335a4.163,4.163,0,0,0-2.129.168c.021-.017-.269.128-.141.167M119.9,2.348c.394.019.765,0,.852,0,.133.006,2.55.433,1.561-.168-.313-.191-2.85-.409-3.263,0-.382.376.673.159.851.168M109.678,2.18a37.078,37.078,0,0,0,5.96-.168c0-.3-3.2-.165-3.264-.168-.945-.051-2.842-.506-2.98,0-.022.08.255.329.284.336m95.786,7.227c.141-.046-.476-.227-.283,0,.033.039.264-.046.283,0,.225.553.152,1.468.852,1.008.281-.185.473.009,1.134.169a8.5,8.5,0,0,1,.994.167c.084.085-.049.547,0,.672,0,0,.475.11.284.336-.246.292-.759-.413-.993-.5-.166-.064-.395.03-.568,0-.645-.112.252-.26-.569-.336a2.981,2.981,0,0,0-.993.168,7.245,7.245,0,0,1-.993.841c-.516.1-1.2-.518-1.561-.168-.225.221.282.786.425.672-.3.235-.617-.123-1.134.168-.245.137.025.5-.142.672-.029.03-.422-.031-.426,0-.051.417.594.547.994.841.088.065.2.284.283.336.223.146,1.1-.3.994.5.014-.1-.161.361-.143.336-.234.319-.872-1.115-1.277-.336-.069.133.278.25,0,.336-.334.1-.34-.316-.709-.336-.169-.01-.394.278-.71.336-1.034.19-2.79.007-1.561.5.31.125,1.365-.023,1.419.672-.014-.175-.243.206-.71.169-.028,0-.452-.334-.568-.169-.325.464,2.6.591,2.7.672.37.309-.514.7-.141,1.177a17.577,17.577,0,0,0,2.838.169c.315-.07.5-.352.71-.337-.1-.007.131.332.141.337.318.149.815-.313.285-.169.1-.028.1-.316.282-.336a1.373,1.373,0,0,1,.71.168c.165.076-.585.2-.568.168-.255.46,1.441.141.852.672a6.945,6.945,0,0,1-1.277.168,12.638,12.638,0,0,0-1.987-.168c-.562.066-1.471-.106-1.7.168-.153.182.423.325.426.336.186.524-.633.529-.283.841,0,0,1.022-.469,1.277-.168.029.035-.035.32,0,.336.226.1,1.866.142,1.986.5.073.221-.627.6-.851.672.023-.007-.183-.214-.284-.168-.042.019-.027.137-.142.168-.32.088-.5.207-.71,0-.381-.38.239-.075-1.136-.168-1.623-.11-1.568.043-.284.5.847.3,1.308.416.426.841a5.582,5.582,0,0,1-.709.168c.1,0-.125-.331-.142-.336-.356-.121-2.122-.207-1.277.168-.014-.007.061.287.142.168.263-.39.162.093.567.168.266.049.684-.08.994,0,.177.045.488.405.851.5.812.221,2.072.012,1.7.672-.1.174-1.864.007-1.845,0s.384.32.284.5c.032-.06-.333.206-.284.169-.561.429-.459-.424-.852,0-.02.021-.391.405-.425.335.109.223,1.426.471,1.7.5s.939-.194,1.136,0c.374.371-.439.123-.71.168-.171.028-.694-.084-.71.336a.6.6,0,0,0,.71.336c.18-.031.287-.351.568-.336.451.023.048.3.142.336.4.167,3.145-.359,2.98.5-.072.369-2.241-.232-2.413.168s2.464-.006,2.271.672c.027-.1-.819.155-.852.168-.629.273-.291.321-.567.336-.108.006-1.333-.306-1.419-.5-.247-.558.824-.47.284-.672a5.086,5.086,0,0,0-1.561.167c-.25.114-.114.579-.568.672s-.487.086-.283.672c.138.4.462.733-.426.672.042,0-.547-.3-.568-.168-.084.529,1.124.313.851.841-.114.221-1.427.189-1.419.5,0,.118,2.188.582.994.336.168.034,1.629-.115,1.276.672-.129.291-2.052.185-.851.5.778.207.162.382-.283.672-.14.091-.115.271-.284.336-.328.125-.659.013-.142.336a2.694,2.694,0,0,0,.284.168c.191.3-.122.807.283.84.37.031.432-.52.568-.168.239.615-.628.2-.709.5-.22.828.465-.091.993.168.05.025-.04.451,0,.5.054.072.349-.043.426,0-.13-.072.609.892.71.5-.191.738-1.24-.013-1.845.336-.168.1.249.449.426.336a3.706,3.706,0,0,1-.568.336c-.091.036-.528.089-.567.168-.134.266.43.046.284,0,.228.073.171.485.568.672.19.091,1.167-.071.426.168-1.264.409,1.333.282,1.419.336.228.149-.488.5-.426.672s.966.235.994.168c-.2.486-2.553.554-.994,1.009.358.1.547-.08.71.168.182.276-.542.2-.568.336-.02.1.657.316.426.5-.091.072-.93-.2-1.278,0-.313.183.1.325-.282.672-.629.57-.064.54.851.672.866.125,1.159-.034,1.277.336.218.685-.5.139-.851.672-.141.211.316.451,0,.672-.219.152-2.165.264-.994.672.442.155.659-.024.994,0,.119.009.138.174.284.168.264-.011.461-.284.709-.336a3.756,3.756,0,0,1,1.277,0c.231.054.48.532.426.5.066.033.7-.05.71,0,.11.612-.633.586-1.419.672-.382.042-.81.294-1.136.336a7.588,7.588,0,0,0-2.412.336c-.029.011-.954.21-.851.5.289.832,2.6-.727,3.122-.168.151.163-1.494.355-1.419.841.037.24.9-.387,1.277-.168.167.1-.029.956.425.335.01-.013.149-.336.142-.335.058-.008.238.3.426.335.751.15,2.268-.5,1.561.337-.122.144-.115.226-.284.335-.433.28-.029-.217-.852.336-.322.217-.516.786-.994.841-.379.044-.461-.307-.567-.336a1.612,1.612,0,0,0-1.277.336c-.195.1-.379.041-.568.168-.128.086-.177.384-.426.5-.187.091-.647.1-.851.168.092-.031-1.17.417-.143.5.374.032.657.024.71.5.016.152-.1.609-.142.5.29.756.65-.115.568.672-.035.331-.663.062-.852.336-.01.014.325.511.284.672.029-.116-.322.212-.284.168a3.106,3.106,0,0,1-.71.672,1.372,1.372,0,0,0-.71.841c-.367.782.695.1.994,0a5.4,5.4,0,0,1,.71-.167c.251.041.312.3.568.5.042.034.735.138.567.5-.065.142-2.6.526-.567.5-.033,0,.665-.3.708,0s-1.481.586-1.56.841c-.142.451.73-.216,1.135.168.217.207-.288.364-.283.335-.016.087.26.393.283.337-.134.337-.438.315-.993.84a.945.945,0,0,0-.284.336c-.218.419-.595.246-1.136.5a4.283,4.283,0,0,0-.993,1.009c-.106.653.443.72.283,1.009,0,0-1,.308-.994.335.021.264,1.037.227,1.136.336.14.156-.681.315-.284.841.291.385,1.583.043,2.271,0,.073,0,.3-.262.425,0,.138.3-.63.52-.852.672-.109.075-.844.7-.851.672.083.35-.7.118.568.336.191.032.583-.094.568.168-.026.43-.763.7-1.419,1.008a11.94,11.94,0,0,0-1.7.672c-.179.352.654-.2.852.168-.039-.072-.12.577-.143.672a4.914,4.914,0,0,1-.283,1.008c-.635,1,.908.1,1.135.336.411.436-1.348.555-.142.841,1.052.249-.414.626-.567.841-.14.194,0,.688-.143.841-.238.248-.8.33-1.135.672a1.939,1.939,0,0,0-.142.337c-.321.148-.188-.314-.284-.337.082.02-.809.429-.852.5-.125.228,1.2-.1.426.672-.107.108-.185.233-.284.336s-.128.443-.284.5a1.336,1.336,0,0,1-.568,0c-.248-.123.958-.907.426-1.345-.171-.14-.242.409-.283.5-.079.184-.179.756-.71.5a.632.632,0,0,1,0-1.009c.085-.083.6-.15.567-.335a.7.7,0,0,0-.567-.5c-.144-.035-.457.325-.852,0-.324-.267-.049-.369-.426,0a4.5,4.5,0,0,1-.568.5c-.072.047-.348-.013-.283.167.113.318.686.254.993.168.03-.008.424.015.426,0-.047.388-.486.441-.994.5-.571.072-.874.082-1.277.168a1.91,1.91,0,0,1-1.419-.168c-.091-.091.72-.134.426-.672-.032-.059-.2-.166-.142-.336a2.617,2.617,0,0,1,.568-.168c-.048-.2-.328-.191-.426-.335-.084-.124-.026-.431-.142-.5a1.327,1.327,0,0,0-1.277,0c-.075.083.33.218.426.168-.247.13-.288.428-.568.5-.082.021-.886-.159-.994,0-.016.024.631.566.852.335-.273.284-.21.209-.567.336-.294.1-.6.108-.71.168-.4.212-.458.768-.993,1.009a2.974,2.974,0,0,1-1.419.168c-.2-.027-.237-.185-.568-.336-.292-.133-.868-.129-.569-1.009,0-.01.382-.247.285-.336-.582-.53-1.834-.034-2.554-.168-.051-.009-.251.04-.284,0s.031-.324,0-.335c-.486-.185-1.089.085-1.419-.5-.138-.249.143-.672.143-.672-.011-.073-.44-.3-.285-.5.14-.182,1.194,0,1.419,0,.283,0,1.051-.188,1.42-.169.256.013.421.19.568.169.306-.049.845-.479,1.135-.505a15.255,15.255,0,0,1,2.554.168c.214.03.476.336.71.337s.3-.258.568-.337a2.426,2.426,0,0,1,1.561.168c.46.335.36-.157,1.136-.336.483-.112,1.106.3,1.561,0-.035.023.584-.973.568-1.009-.379-.794-1.306.5-1.561.5-.284,0-.2-.554-.426-.672-.155-.081-.6.224-.851.167-.186-.042-.184-.449-.284-.5-.194-.108-.505.08-.71,0-.275-.109-.29-.5-.426-.5a8.838,8.838,0,0,1-1.419.841c-.225.063-.461-.012-.567.167-.076.126.445.219.567.169-.263.109-.418.366-.567.335-.273-.055-.116-.55-.427-.5-.274.041-.523.586-.709.672a2.007,2.007,0,0,1-1.561,0c-.03-.021.027-.5,0-.5a3.061,3.061,0,0,0-.852,0c-.393.073-.558.405-.994.5-.261.06-.518-.169-.568-.168-.45.013-.432.568-1.135.336-.472-.155.576-.519.567-.336.029-.568-.584-.2-1.277-.168-.374.021-.954-.155-1.277,0-.183.088-.156.741-.568.672-.285-.047-.305-.106-.426-.336a6.368,6.368,0,0,0-.142-.672c-.286-.3-.874.144-.283-.5.09-.1.29-.13.283-.336-.023-.73-1.933-.971-2.7-.841-.09.015-.673-.073-.709,0-.2.41,1.335.855.709.672a13.954,13.954,0,0,0,1.419,0c-.036,0,.069.275.142.168.225-.334.492.075,0,.168-1.089.2.414-.063.141.672-.029.079-1.52.29-2.128.5-.114.041-.367.325-.425.336-.1.021-.235-.212-.426-.168-.505.118-.068.293-.71.336-.948.064-.885-.42-1.277.505.021-.05.108.821-.283.335.417.517,4.523-.335,4.966-.335a15.156,15.156,0,0,1,2.554.167c.566.18-.14.074.284.5.339.345.721-.062.71.336-.009.3-.678.654-.994.841-.179.106-.482.457-.852.5-.235.03-.24-.169-.426-.169-.225,0-.978.071-1.7.169a4.3,4.3,0,0,1-.71.167c-.036.068.8.333.852.337.784.046,3.109-.507,1.845.167-.365.195-.781.234.142.5.753.22.894.332.142.672-.612.277-.249.1-.71.168-.773.113-1.706-.144-1.844,0,.006-.006,1.157.33,1.419.336.569.013,2.274-.13,2.98-.168a38.1,38.1,0,0,0,4.258-.336,4.866,4.866,0,0,1,2.553.336c.112.285-.1.564-.568.672-.705.16-.468-.21-.851-.168-.134.014-.417.32-.568.335s-.464-.323-.71-.335-.3.193-.567.168a17.39,17.39,0,0,0-5.25,0c-.478.113-.9.449-1.277.5a22.624,22.624,0,0,1-3.405,0c-.113-.093-.086-.52,0-.672s.376-.214.426-.336c.067-.167-.259-.7.425-.841.032-.007.424.017.426,0,.106-.664-.69-.194-.851-.672-.017-.049.283-.494.142-.672-.113-.141-.652.12-.71-.167-.147-.735.685-.007.71-.337.048-.63-.988-.113-1.277-.167a.667.667,0,0,1-.426-.168c-.433-.318-.374-.315-.993.168a2.9,2.9,0,0,1-.568.5c-.626.3-.935-.152-1.136.335-.18.437,1.538-.246.71.672a4.593,4.593,0,0,0-.569.672c-.075.134-.027.432-.141.5-.151.095-1.777.167-1.844.336-.024.058,1.214.346,1.277.5.045.115-.408.617-.569.672.014,0-.57-.007-.709,0a13.1,13.1,0,0,0-2.412.336c-.469.156-.939.547-1.136.5-.217-.047-.156-.386-.284-.5s-.445-.04-.568-.168c-.045-.047.032-.271,0-.336-.124-.254-.867-.38,0-.5.163-.022.236-.16.284-.167,1.4-.217.52.136.142-.672-.224-.48.725-.329,0-.672-.171-.08-.8-.149.142-.672.094-.052.159-.168.284-.168.038,0,.238.23.284.168.161-.217-.473-1.22,0-.672-.451-.521-1.317.183-1.419-.5-.119-.807,1.27-.53,1.7-.672.1-.035.516.039.426-.168a9.041,9.041,0,0,0-3.548.168c-.239.067-.716.173-.71.168-.079.06-.128.666-.142.672a9.239,9.239,0,0,1-2.838.336,14.8,14.8,0,0,0-2.27-.167c.18-.043-.729.207-.71.5.015.23.693.164.567.335-.147.2.005.451-.283.5.007,0-1.354-.1-1.419.168-.072.306,2.022.486.994,1.009-1.149.583,1.208-.027,1.135,1.008a.718.718,0,0,0-.283-.168c-.052,0-.469.457-.71.5a2.88,2.88,0,0,1-1.277,0c-.538-.206.368-.494.142-.841,0,0-.612-.159-.567-.167-.079.014-.3.334-.284.335-.315-.034-.269-.434-.569-.335-.2.064-.381.743-.567.84-.546.283-3.074.021-3.832,0-.485-.013-.969.2-1.277.168.088.008-.55-.154-.568-.168-.054-.044.425-.33.426-.336.05-.338-.843-.443-.142-.672.042-.014.568,0,.568,0-.009-.114-.751-.468-.852-.336a2.5,2.5,0,0,1,1.136-.672c1.033-.216,3.548.189,1.7-.336a12.577,12.577,0,0,0-1.7-.336c-.341-.038-.793.087-.994,0-.042-.018-.268-.624-.569-.841a5.878,5.878,0,0,0-1.56-.5,11.47,11.47,0,0,0-3.406,0c-.905.027-1.716-.119-1.845.168-.056.125.571.335.568.336a1.987,1.987,0,0,1-1.7.168c-.1-.031.178-.473.143-.5a10.761,10.761,0,0,0-3.265-.168c-.076.075,1.951.237.71.841a4.485,4.485,0,0,1-.71.167c-1.233.249-1.282-.089-2.412-.167-.595-.042-1.228.042-1.7,0-.426-.039-.945-.283-1.419-.337-.3-.033-.75.1-.994,0-.1-.039.171-.46.142-.5.025.038-.584-.308-.71-.335-.752-.168-3.791.076-4.825,0-.3-.022-.8-.135-.71-.168-.275.1.146.712-.284,1.008-.228.157-1.083-.044-1.419,0-.235.031-.431.272-.71.337a10.76,10.76,0,0,1-2.979-.169,8.483,8.483,0,0,1-1.845-.5c-1.007-.331-.671-.054-.852-.672a4.165,4.165,0,0,1-.143-.672c-.78-.38-.626.1-1.56.168-.318.023-2.59-.072-1.277.168a12.305,12.305,0,0,1,1.419.336c.325,1.046-2.154.579-2.98.672-.223.025-.374.258-.709.336-.42.1-.985-.067-1.136,0,.009,0,.413.33.284.5.032-.044-.763.239-1.136.336-.556.147-1.251-.235-1.135.336.068.335.574.11.993.168.3.041,1.614.273,1.277.672-.3.354-2.55-.145-2.98-.168-.223-.013-.455.169-.71.168a10.36,10.36,0,0,1-1.986-.336c-.1-.021-.5.081-.568,0-.2-.233.664-.311.71-.336.328-.181.587-.622.71-.672.085-.035.954-.131.993,0-.09-.294-2.011-.241-2.412,0a1.81,1.81,0,0,0-.284.336c-.116.148-.2.131-.284.336-.153.361-.257.628-.851.672-.276.021-.458-.161-.71-.168a4.752,4.752,0,0,1-1.986-.168s.567-.761.567-.336c0-.523-2.485-.393-2.838-.168-.057.037-.177.418-.568.5a19.364,19.364,0,0,1-2.979.168,9.868,9.868,0,0,1-2.7-.336c-.716-.293.228-.131,0-.5-.146-.236-.751-.081-.852-.168-.012-.011.244-.491-.142-.672-.409-.191-1.028.034-1.419,0a7.682,7.682,0,0,0-1.986-.168,5.607,5.607,0,0,1-1.986-.167c.238.043.413-.6-.284-.337.01,0-.2.456-.142.5.341.29,2.14.109.993.672-.395.194-.474.417.142.5.006,0,.16-.224.284-.168.006,0,.036.273.142.168-.554.548-2.509.262-3.832.168-.729-.052-1.413.121-1.7-.336.023.037-.193-.363-.142-.336a6.061,6.061,0,0,0-1.844,0c-.129.024-.327.428-.568.5-.26.082-.706-.049-1.136,0-.351.04-.79.3-1.135.336a23.741,23.741,0,0,1-3.264-.168c-.555-.023-1.137.062-1.7,0a16.224,16.224,0,0,0-2.7,0c-.455,0-1.519-.454.142-.5.208-.006.741.39.852,0,.042-.148-.384-.613-.71-.336.229-.194.316-.1.71-.167.232-.042,1.162-.287.426-.337-.19-.013-.689-.04-.568-.5.18-.689,3.76.085,4.116-.335.384-.455-1.552-.335-1.561-.336.025,0-1.813-.158-1.844-.336-.129-.722,2.849-.167,2.98-.5.168-.438-1.825-.191-2.412-.168a5.247,5.247,0,0,1-2.413-.335c-.127-.087-.405-.175-.425-.337-.038-.3.206-.219.567-.5a3.2,3.2,0,0,1,1.136-.672,6.187,6.187,0,0,1,1.986,0c.935,0,2.588.078,1.277-.335a9.167,9.167,0,0,0-2.412-.336,1.532,1.532,0,0,0-.568.168c-.125,0-.321-.171-.568-.168-.272,0-1.789.673-1.561-.672.008-.047.251-.3.142-.5-.142-.266-.532-.2-.71-.168-.5.1-.311.565-.71.672-.219.058-.328-.159-.568-.168-.478-.017-1.1.351-1.419.336-.463-.021-.913-.435-1.419-.5-.233-.032-.242.182-.426.168-.118-.009-.138-.178-.284-.168a8.134,8.134,0,0,1-.851.168c-.248-.009-.734-.262-.994-.168-.141.051-.819.269-.426.841.374.543,1.227.092,1.987.168.611.061,1.1.337,2.128.5a5.177,5.177,0,0,1,1.419.167c.266.127-.08.418,0,.5.04.044,1.51.347,1.277.841-.114.241-.839.1-1.277.169-.528.079-1,.289-1.419.335-.466.052-.935-.165-1.277,0-.221.106-.014.3-.142.5-.277.439-.71-.114-.284.5.044.063-.048.278,0,.336.214.252.324,0,.142.335-.369.676.622.123.994.5.831.853-3.459.389-3.832.337-.673-.1-3.429-.2-1.7.335.133.042.291-.035.426,0,.037.01.233.224.284.168-.391.436-2.463.071-3.69,0-.8-.046-1.639.063-2.128,0-.444-.056-.849-.322-1.136-.336-.68-.034-1.252.251-1.844.168-.4-.055-1.444-.455-.71-.5.231-.015,1.453-.249.426-.335-.282-.024-.775-.168-.994-.169a6.984,6.984,0,0,1-1.277,0c-1.3-.173.1.44.568.5.062.009.706-.025.71,0a5.054,5.054,0,0,1-.426.336,20.544,20.544,0,0,1-4.4-.167c-1.5-.115-3.533-.392-1.845-.673.814-.135,4.01.586,4.683.169-.011.005-.43-.337-.426-.337-.314-.047-.361.161-.568.168.149-.005-1.415-.158-1.419-.168-.158-.388,1.394-.324,1.419-.335.313-.145.164-.576.568-.672s1.983,0,3.264,0c.964,0,4.413,0,2.554-.336-1.253-.225.461.262-.852,0-.238-.047-.45-.26-.71-.336-.639-.187-1.157-.046-1.277-.168-.191-.193.356-.537,0-.672a7.253,7.253,0,0,0-1.419,0c-1.534-.112-3.392-.623-3.831-.168-.078.081,0,.49-.142.5-.477.047-.852.051-1.136-.336-.017-.023-.131-.332-.142-.336a5.482,5.482,0,0,0-1.844,0c-.7.1-1.662-.15-2.7,0-.213.031-.324.252-.568.336-.222.077-.6.109-.852.168-.941.223-3.727-.159-3.832.168-.169.534,1.032.292,1.277.336-.056-.011,1.278.351,1.277.336.032.586-4.74.273-4.967.336-.651.182-.039.3-.426.5-.037.019-.568,0-.567,0a3.373,3.373,0,0,0,.851.336c1.163.163,3.009-.122,4.258,0,1.12.108-.057.507.994.168.328-.106-.076-.39-.284-.336.5-.127,1.4-.251,1.986-.336a4.463,4.463,0,0,0,.71,0c.119-.4-.393-.048-.71-.168-.072-.028-.694-.29-.426-.5.469-.376,1.066.169,1.561.168a7.92,7.92,0,0,1,1.7,0c.074.015.535-.063.568,0,.411.783-.692.321-1.136.5-.166.068-.156.43-.284.5-.048.028-.71-.011-.709,0,.067.8,1.093.032,1.844.335,1.1.445-.75.576-1.7.5a10.157,10.157,0,0,1-2.128-.336c-.046-.018.305-.525.426-.335.015.023-.8-.458-.994-.168.032-.047.4.46.284.5a11.8,11.8,0,0,1-3.689.169c-.5-.056-.966-.3-1.419-.337-.4-.037-.784.059-1.277,0-1.932-.229-4.026.033-5.96-.167-.723-.075-1.392-.43-2.271-.5-.231-.02-.245.182-.425.168-.119-.01-.139-.174-.284-.168-.378.016-.763,0-1.277,0a7.849,7.849,0,0,1-1.277.168c-.282-.021-.575-.275-.852-.336-.254-.056-.608.032-.852,0-.944-.124-1.775-.346-2.98-.5-.729-.1-1.427-.412-2.128-.5-.3-.039-.67.072-.994,0-.159-.035-.345-.27-.568-.336s-.494.08-.71,0c-.13-.048-.257-.268-.425-.336-.246-.1-.384-.1-.568-.168a3.723,3.723,0,0,1-1.845-1.008,4.522,4.522,0,0,0-.567-.672c-.242-.173-.625-.056-.852-.168-.263-.131-.461-.5-.71-.672-.217-.149-.738-.1-.852-.5.033.118.321-.525.284-.5.516-.28.619.207.284-.505-.048-.1-.066-.345-.141-.5-.186-.389-.357-.39-.427-.5s.064-.388,0-.5-.272.086-.283-.168c-.033-.727.685-.046.851-.336.055-.1-.405-.286-.426-.336-.051-.131.086-.58,0-.672s-.334.052-.425,0c-.206-.115-.126-.336-.71-.336-.064,0-.542.05-.568,0a.666.666,0,0,1,.426-1.008c.267-.018.232-.074.284-.336.035-.176.316-.311.283-.5-.045-.278-.86-.354-.993-1.009-.038-.184.56-.117.568-.168.059-.405-.31-.14-.284-.84.031-.82.661-.563.567-1.009a.932.932,0,0,0-.851-.841c-.98,0,.075-.119.284-.336.33-.343-.134-.367.284-.841.131-.148.577-.607.283-1.009-.04-.055-.842-.408-.851-.5s.57-.578.71-1.009c.076-.237-.039-.588,0-.841a1.575,1.575,0,0,1,.283-.5c.005-.335-.37-.23-.425-.5a12.644,12.644,0,0,1,.283-1.512c.1-.249.477-.118.427-.5-.083-.623-1.073-.289-.142-.841a.488.488,0,0,0,.284-.336c.142-.58-.637-.892-.71-1.512-.044-.372.127-.082.283-.672.148-.558.063-1.614.143-1.848.063-.188.385-.077.425-.336.065-.411-.279-1.313,0-1.849s-.378-1.465,0-2.185c.324-.617.1-.332-.141-1.009a1.252,1.252,0,0,1,.141-1.344,3.011,3.011,0,0,1,.427-.168c.088-.2-.138-.345-.143-.5a.563.563,0,0,1,.143-.336c-.029-.224-.284-.479-.285-.5-.008-.674.386-.348,0-1.009-.111-.19.005-.2-.142-.336-.257-.242-.123-.848.142-1.176.108-.134.171-1.043.285-1.177.536-.635-.36-.255-.285-1.512a1.751,1.751,0,0,1,.142-.5c-.036-.682-.411-.616-.284-1.009.045-.137.559-.081.568-.5,0-.19-.371-.212-.426-.337a6.229,6.229,0,0,0,0-.841,2.87,2.87,0,0,1,.426-1.176c.2-.359,0-.579,0-1.009,0-.247.169-.322.142-.5-.038-.249-.294-.432-.283-.672.02-.483.306-.1.425-.5a5.217,5.217,0,0,1,0-.672c-.041-.3-.261-.379-.284-.5-.048-.272.243-.4.142-.672-.168-.451-.529.052-.426-.5.077-.414-.085-.346.426-.5.039-.013.452.257.568,0,.286-.638-1.107-.6-.284-1.513.351-.39.525-.282.142-1.009-.1-.192-.022-.194-.142-.336.025.03-.29-.276-.284-.168-.01-.166.473-.589.568-.84.023-.063-.042-.3,0-.336.214-.216.818-.211.851-.336.06-.22-1.145-.341-.567-1.009.27-.312.225-.167.284-1.008a4.935,4.935,0,0,0,0-.672c.005-.014.415-.251.426-.168-.036-.29-.566-.514-.568-.672-.007-.543.338-.18.425-.672,0,.016-.109-.553-.141-.672-.12-.44-.418-.672-.426-1.009,0,.206.462-.216.426-.168A.768.768,0,0,0,4.1,9.91c.055-.373-.247-.24-.283-.5-.043-.309.219-1,.283-1.849.069-.9-.108-1.843,0-2.185.079-.247.819-.344.994-.841.057-.16-.1-.733,0-.841.313-.325.5.1.994-.167.34-.187.336-.617.71-.841.164-.1.786.2.71-.167-.09-.426-3.1,1.2-1.561-.5C6.72,1.155,8.141,1,9.777.835,9.481.864,12.058.55,12.615.5c1.992-.182,4.695-.266,5.96-.336A157.512,157.512,0,0,1,35.6.331C39.01.522,42.245.5,45.962.5c3.607,0,6.477,0,9.508.168,6.939.388,14.871-.259,22.422,0,.289.01.634.18.851.168.366-.02.667-.314.994-.336a66.223,66.223,0,0,1,7.947.168C90.245.81,92.868.5,95.346.835c.294.04.621.339.852.336.407-.005.588-.342.851-.336-.027,0,.04.33.142.336A18.027,18.027,0,0,0,99.319.835a53.317,53.317,0,0,1,7.521,0c.7.052,1.39.357,1.986.336.3-.011.47-.281.71-.336A8.867,8.867,0,0,1,111.523,1c.344.013.651-.163.994-.168,2.079-.034,4.577.2,6.528.336,3.265.227,7.015-.186,10.927.168a14.615,14.615,0,0,0,3.122.336c.359-.053.666-.3.994-.336a16.341,16.341,0,0,1,2.554,0c4.643.257,9.457.16,14.048.5a36.282,36.282,0,0,0,4.4,0c.339-.014.754.173,1.136.168,3.41-.04,7.755.168,11.92.168,2.226,0,4.729.09,6.1.168a24.9,24.9,0,0,0,2.7,0c.563-.031,3.079-.424,3.832-.168.035.012.632.33.567.672.042-.217-.461.382-.283.336-.385.1-1.929-.264-2.413-.168-.06.013-.6.2-.567.336.079.352.946.114,1.7.169,1.223.088,4.813.511,5.533.167.288-.136.281-.466.427-.5a10.5,10.5,0,0,0,1.277,0c.125-.772-2.117-.147-2.98-.168-.344-.008-1.238-.292-.71-.168-.308-.072-1.546-.379.142-.5.943-.07.681-.115,1.277-.168,1.133-.1,5.77-.334,7.521-.336,1.837,0,4.086.2,5.96.336.566.04,1.078-.072,1.561,0,.554.082.713.343.994.336.379-.011.781-.445,1.277-.5a8.469,8.469,0,0,1,2.7.5c.057.037-.045.439,0,.5a11.481,11.481,0,0,0,1.418.841c.133.074.36.537.569.672.131.085.427-.005.709.168.063.038.091.309.143.336a5.568,5.568,0,0,1,1.277.5c-.125.579-.405-.066-1.135,0-.4.036-.673.337-.994.336-.261,0-.6-.369-.71-.336-.24.071,0,.364-.141.5a3.66,3.66,0,0,1-.569.167,1.025,1.025,0,0,1-.993.169c-1.52-.27.892.778,1.135.84.559.143,1.328.02,1.7.168a9.718,9.718,0,0,0,1.277.841c.39.568-.525.187-.567.336-.035.123.72.616.851.841,0,0,.067.492.142.335-.148.308-.264-.022-.71,0-.27.014-.4.182-.567.168a16.189,16.189,0,0,1-1.7-.5,1.179,1.179,0,0,0-.427,0M116.49,73.776a10.16,10.16,0,0,1,3.689.168c1.532.506-1.08.232-1.7.5-.09.038-.414.584-.426.5.04.266,1.214.489,2.27.5a24.128,24.128,0,0,1,3.548-.168c-.128-.02.6.253.568.168-.1-.222.555.275-.568.5-1.74.356-3.025-.3-4.825-.336-.577-.012-1.183.182-1.7.168a4.406,4.406,0,0,1-1.561-.168c-.052-.052.354-.989.284-1.177a5.382,5.382,0,0,0-.568-.5c.211-.422.488-.041.994-.168m15.326.168c.278-.021.435-.182.708-.168.88.047,1.786.41,2.84.5.488.044,1.037-.08,1.561,0a10.531,10.531,0,0,0,1.135.336c.772.038,1.94-.233,3.122-.168.637.036,3.108,0,3.264.336-.057-.124.181.31-.426.5-.464.148-1.034-.033-.284.336,1.233.605-.855.009-1.419.336-.14.081-.208.647-.283.672a6.733,6.733,0,0,1-1.7.168,4.314,4.314,0,0,1-1.986-.5c-.136-.213.737-.368.71-.84a8.241,8.241,0,0,0-.852-.672c-.193-.044-.8.261-1.419.336-.548.066-.823-.082-1.136,0,.068-.018-.718.534-.708.336,0-.016.908.615.993.5-.334.432-.635.3-1.419.335a11.01,11.01,0,0,1-1.7,0,2.364,2.364,0,0,1-.71-.335c-.283-.017-.321.3-.567.335a8.741,8.741,0,0,1-1.845-.335c-.39-.846,2.012-.168,2.27-.168a1.282,1.282,0,0,0,.71-.168c.158-.239-.952-.8-.568-.672-.171-.058-.8.181-.993.168-.339-.021-2.273-.515-2.271-.5-.14-.571,2.418-.63,2.981-.672" transform="translate(0 0)" fill="#126f7d" fill-rule="evenodd"/>
</svg>
